<?xml version="1.0" standalone="no"?>
<!DOCTYPE svg PUBLIC "-//W3C//DTD SVG 20010904//EN"
 "http://www.w3.org/TR/2001/REC-SVG-20010904/DTD/svg10.dtd">
<svg version="1.0" xmlns="http://www.w3.org/2000/svg"
 width="240.000000pt" height="235.000000pt" viewBox="0 0 240.000000 235.000000"
 preserveAspectRatio="xMidYMid meet">

<g transform="translate(0.000000,235.000000) scale(0.100000,-0.100000)"
fill="#000000" stroke="none">
<path d="M1050 2340 c-36 -4 -87 -13 -115 -20 -118 -26 -124 -29 -144 -68 -41
-83 -48 -77 111 -91 79 -6 172 -18 208 -26 58 -12 77 -12 175 5 61 10 158 22
217 26 l107 7 -29 58 c-33 64 -33 64 -180 95 -84 17 -267 25 -350 14z m-142
-157 c-15 -2 -42 -2 -60 0 -18 2 -6 4 27 4 33 0 48 -2 33 -4z"/>
<path d="M1880 1996 c0 -2 8 -10 18 -17 15 -13 16 -12 3 4 -13 16 -21 21 -21
13z"/>
<path d="M1949 1936 c14 -17 61 -199 81 -308 16 -90 16 -98 1 -99 -11 0 -9 -3
6 -9 32 -13 171 -259 216 -383 6 -17 13 -14 57 23 l50 41 -6 62 c-8 92 -32
209 -59 288 -32 93 -117 253 -170 321 -42 54 -44 55 -114 64 -49 7 -68 7 -62
0z"/>
<path d="M317 1933 c-32 -4 -44 -13 -83 -61 -64 -81 -159 -279 -189 -392 -13
-52 -29 -135 -35 -185 l-10 -90 42 -37 c24 -21 48 -37 53 -38 6 0 25 35 43 78
18 42 63 130 100 194 50 88 72 118 87 118 16 0 17 2 5 10 -13 8 -13 21 2 107
15 85 52 231 73 286 8 18 1 19 -88 10z m37 -102 c-12 -43 -28 -115 -35 -159
-7 -45 -16 -79 -20 -77 -23 15 -8 159 26 241 13 31 42 74 50 74 1 0 -8 -35
-21 -79z"/>
<path d="M1172 1798 c-2 -38 -7 -50 -24 -59 -47 -25 -267 -175 -352 -240 -50
-38 -97 -69 -105 -69 -9 0 -45 9 -81 20 -36 11 -69 19 -75 19 -5 -1 28 -13 74
-28 l85 -27 38 -134 c21 -74 61 -200 88 -279 27 -79 47 -148 43 -155 -3 -6
-60 -86 -125 -178 -109 -152 -121 -166 -142 -158 -113 43 -376 185 -377 204
-1 17 -38 -126 -39 -148 0 -53 221 -288 351 -372 74 -48 215 -118 260 -129 22
-5 40 3 93 41 l67 48 -103 101 c-133 129 -222 231 -215 247 4 7 60 87 125 178
l119 165 302 -2 303 -2 32 -43 c78 -103 216 -299 216 -307 0 -5 -72 -83 -160
-174 l-159 -164 65 -48 c63 -46 67 -47 102 -37 64 19 214 98 290 151 93 66
207 180 270 271 l50 70 -21 70 c-11 38 -24 70 -28 70 -5 0 -39 -19 -76 -42
-74 -45 -277 -144 -307 -150 -15 -2 -47 37 -144 172 l-124 174 56 166 c31 91
71 216 89 279 31 111 33 115 67 127 l35 13 -37 -5 c-35 -6 -45 -1 -145 74
-117 86 -201 144 -305 209 -63 40 -67 45 -71 85 l-4 43 -1 -47z m-92 -128
c-49 -39 -205 -141 -175 -115 17 15 66 51 110 81 80 54 112 71 65 34z m-357
-1531 c67 -26 97 -49 64 -49 -37 0 -287 135 -287 155 0 3 34 -13 76 -36 42
-23 108 -54 147 -70z m897 -39 c-8 -5 -22 -10 -30 -10 -13 0 -13 1 0 10 8 5
22 10 30 10 13 0 13 -1 0 -10z"/>
<path d="M358 1513 c7 -3 16 -2 19 1 4 3 -2 6 -13 5 -11 0 -14 -3 -6 -6z"/>
<path d="M1965 1510 c-13 -5 -14 -9 -5 -9 8 0 24 4 35 9 13 5 14 9 5 9 -8 0
-24 -4 -35 -9z"/>
<path d="M405 1500 c11 -5 27 -9 35 -9 9 0 8 4 -5 9 -11 5 -27 9 -35 9 -9 0
-8 -4 5 -9z"/>
<path d="M1918 1493 c7 -3 16 -2 19 1 4 3 -2 6 -13 5 -11 0 -14 -3 -6 -6z"/>
<path d="M475 1480 c11 -5 27 -9 35 -9 9 0 8 4 -5 9 -11 5 -27 9 -35 9 -9 0
-8 -4 5 -9z"/>
<path d="M1825 1470 c-13 -5 -14 -9 -5 -9 8 0 24 4 35 9 13 5 14 9 5 9 -8 0
-24 -4 -35 -9z"/>
<path d="M1755 1450 c-13 -5 -14 -9 -5 -9 8 0 24 4 35 9 13 5 14 9 5 9 -8 0
-24 -4 -35 -9z"/>
</g>
</svg>
